<?xml version="1.0" encoding="UTF-8" standalone="no"?>
<!DOCTYPE svg PUBLIC "-//W3C//DTD SVG 1.1//EN"
 "http://www.w3.org/Graphics/SVG/1.1/DTD/svg11.dtd">
<!-- Generated by graphviz version 2.43.0 (0)
 -->
<!-- Title: /home/runner/work/ZachVec.github.io/ZachVec.github.io/_docsrc/ccjieba/src/include/keyword.hh Pages: 1 -->
<svg width="571pt" height="203pt"
 viewBox="0.00 0.00 571.00 203.00" xmlns="http://www.w3.org/2000/svg" xmlns:xlink="http://www.w3.org/1999/xlink">
<g id="graph0" class="graph" transform="scale(1 1) rotate(0) translate(4 199)">
<title>/home/runner/work/ZachVec.github.io/ZachVec.github.io/_docsrc/ccjieba/src/include/keyword.hh</title>
<!-- Node1 -->
<g id="Node000001" class="node">
<title>Node1</title>
<g id="a_Node000001"><a xlink:title=" ">
<polygon fill="#999999" stroke="#666666" points="371,-195 172,-195 172,-154 371,-154 371,-195"/>
<text text-anchor="start" x="180" y="-183" font-family="Helvetica,sans-Serif" font-size="10.00">/home/runner/work/ZachVec.github.io</text>
<text text-anchor="start" x="180" y="-172" font-family="Helvetica,sans-Serif" font-size="10.00">/ZachVec.github.io/_docsrc/ccjieba</text>
<text text-anchor="middle" x="271.5" y="-161" font-family="Helvetica,sans-Serif" font-size="10.00">/src/include/keyword.hh</text>
</a>
</g>
</g>
<!-- Node2 -->
<g id="Node000002" class="node">
<title>Node2</title>
<g id="a_Node000002"><a xlink:href="extractor_8cc.html" target="_top" xlink:title=" ">
<polygon fill="white" stroke="#666666" points="199,-41 0,-41 0,0 199,0 199,-41"/>
<text text-anchor="start" x="8" y="-29" font-family="Helvetica,sans-Serif" font-size="10.00">/home/runner/work/ZachVec.github.io</text>
<text text-anchor="start" x="8" y="-18" font-family="Helvetica,sans-Serif" font-size="10.00">/ZachVec.github.io/_docsrc/ccjieba</text>
<text text-anchor="middle" x="99.5" y="-7" font-family="Helvetica,sans-Serif" font-size="10.00">/src/algo/extractor.cc</text>
</a>
</g>
</g>
<!-- Node1&#45;&gt;Node2 -->
<g id="edge1_Node000001_Node000002" class="edge">
<title>Node1&#45;&gt;Node2</title>
<g id="a_edge1_Node000001_Node000002"><a xlink:title=" ">
<path fill="none" stroke="#63b8ff" d="M162.32,-160.67C137.48,-152.39 113.91,-139.13 98.5,-118 82.31,-95.8 87.27,-62.44 92.93,-41.33"/>
<polygon fill="#63b8ff" stroke="#63b8ff" points="161.3,-164.02 171.88,-163.6 163.35,-157.33 161.3,-164.02"/>
</a>
</g>
</g>
<!-- Node3 -->
<g id="Node000003" class="node">
<title>Node3</title>
<g id="a_Node000003"><a xlink:href="extractor_8hh.html" target="_top" xlink:title=" ">
<polygon fill="white" stroke="#666666" points="307,-118 108,-118 108,-77 307,-77 307,-118"/>
<text text-anchor="start" x="116" y="-106" font-family="Helvetica,sans-Serif" font-size="10.00">/home/runner/work/ZachVec.github.io</text>
<text text-anchor="start" x="116" y="-95" font-family="Helvetica,sans-Serif" font-size="10.00">/ZachVec.github.io/_docsrc/ccjieba</text>
<text text-anchor="middle" x="207.5" y="-84" font-family="Helvetica,sans-Serif" font-size="10.00">/src/algo/extractor.hh</text>
</a>
</g>
</g>
<!-- Node1&#45;&gt;Node3 -->
<g id="edge2_Node000001_Node000003" class="edge">
<title>Node1&#45;&gt;Node3</title>
<g id="a_edge2_Node000001_Node000003"><a xlink:title=" ">
<path fill="none" stroke="#63b8ff" d="M247.99,-145.95C240.1,-136.7 231.46,-126.58 224.2,-118.07"/>
<polygon fill="#63b8ff" stroke="#63b8ff" points="245.53,-148.46 254.68,-153.79 250.86,-143.92 245.53,-148.46"/>
</a>
</g>
</g>
<!-- Node4 -->
<g id="Node000004" class="node">
<title>Node4</title>
<g id="a_Node000004"><a xlink:href="jieba_8cc.html" target="_top" xlink:title=" ">
<polygon fill="white" stroke="#666666" points="435,-41 236,-41 236,0 435,0 435,-41"/>
<text text-anchor="start" x="244" y="-29" font-family="Helvetica,sans-Serif" font-size="10.00">/home/runner/work/ZachVec.github.io</text>
<text text-anchor="start" x="244" y="-18" font-family="Helvetica,sans-Serif" font-size="10.00">/ZachVec.github.io/_docsrc/ccjieba</text>
<text text-anchor="middle" x="335.5" y="-7" font-family="Helvetica,sans-Serif" font-size="10.00">/src/jieba.cc</text>
</a>
</g>
</g>
<!-- Node1&#45;&gt;Node4 -->
<g id="edge7_Node000001_Node000004" class="edge">
<title>Node1&#45;&gt;Node4</title>
<g id="a_edge7_Node000001_Node000004"><a xlink:title=" ">
<path fill="none" stroke="#63b8ff" d="M297.23,-146.24C304.07,-137.73 310.84,-127.96 315.5,-118 327.17,-93.05 332.07,-61.31 334.1,-41.2"/>
<polygon fill="#63b8ff" stroke="#63b8ff" points="294.49,-144.06 290.72,-153.96 299.84,-148.57 294.49,-144.06"/>
</a>
</g>
</g>
<!-- Node5 -->
<g id="Node000005" class="node">
<title>Node5</title>
<g id="a_Node000005"><a xlink:href="jieba_8hh.html" target="_top" xlink:title=" ">
<polygon fill="white" stroke="#666666" points="563,-118 364,-118 364,-77 563,-77 563,-118"/>
<text text-anchor="start" x="372" y="-106" font-family="Helvetica,sans-Serif" font-size="10.00">/home/runner/work/ZachVec.github.io</text>
<text text-anchor="start" x="372" y="-95" font-family="Helvetica,sans-Serif" font-size="10.00">/ZachVec.github.io/_docsrc/ccjieba</text>
<text text-anchor="middle" x="463.5" y="-84" font-family="Helvetica,sans-Serif" font-size="10.00">/src/include/jieba.hh</text>
</a>
</g>
</g>
<!-- Node1&#45;&gt;Node5 -->
<g id="edge5_Node000001_Node000005" class="edge">
<title>Node1&#45;&gt;Node5</title>
<g id="a_edge5_Node000001_Node000005"><a xlink:title=" ">
<path fill="none" stroke="#63b8ff" d="M330.97,-150.27C357.43,-139.94 388.23,-127.9 413.47,-118.04"/>
<polygon fill="#63b8ff" stroke="#63b8ff" points="329.49,-147.09 321.44,-153.99 332.03,-153.61 329.49,-147.09"/>
</a>
</g>
</g>
<!-- Node3&#45;&gt;Node2 -->
<g id="edge3_Node000003_Node000002" class="edge">
<title>Node3&#45;&gt;Node2</title>
<g id="a_edge3_Node000003_Node000002"><a xlink:title=" ">
<path fill="none" stroke="#63b8ff" d="M170.91,-71.09C156.84,-61.32 141.01,-50.32 127.83,-41.17"/>
<polygon fill="#63b8ff" stroke="#63b8ff" points="169.2,-74.16 179.41,-76.99 173.19,-68.41 169.2,-74.16"/>
</a>
</g>
</g>
<!-- Node3&#45;&gt;Node4 -->
<g id="edge4_Node000003_Node000004" class="edge">
<title>Node3&#45;&gt;Node4</title>
<g id="a_edge4_Node000003_Node000004"><a xlink:title=" ">
<path fill="none" stroke="#63b8ff" d="M249.45,-71.92C266.47,-61.95 285.87,-50.58 301.93,-41.17"/>
<polygon fill="#63b8ff" stroke="#63b8ff" points="247.65,-68.92 240.8,-76.99 251.19,-74.95 247.65,-68.92"/>
</a>
</g>
</g>
<!-- Node5&#45;&gt;Node4 -->
<g id="edge6_Node000005_Node000004" class="edge">
<title>Node5&#45;&gt;Node4</title>
<g id="a_edge6_Node000005_Node000004"><a xlink:title=" ">
<path fill="none" stroke="#63b8ff" d="M421.55,-71.92C404.53,-61.95 385.13,-50.58 369.07,-41.17"/>
<polygon fill="#63b8ff" stroke="#63b8ff" points="419.81,-74.95 430.2,-76.99 423.35,-68.92 419.81,-74.95"/>
</a>
</g>
</g>
</g>
</svg>
